<svg width="375" height="812" viewBox="0 0 375 812" fill="none" xmlns="http://www.w3.org/2000/svg">
<g clip-path="url(#clip0_61385_181)">
<rect width="375" height="812" fill="#202024"/>
<circle cx="285" cy="94" r="300" transform="rotate(-180 285 94)" fill="url(#paint0_radial_61385_181)"/>
<path d="M-283 181.015C-283 8.97809 -78.1928 -140 178.268 -140C434.73 -140 703 -1.93432 703 170.102C703 342.139 434.73 483 178.268 483C-78.1928 483 -283 353.051 -283 181.015Z" fill="url(#paint1_radial_61385_181)"/>
<mask id="mask0_61385_181" style="mask-type:alpha" maskUnits="userSpaceOnUse" x="29" y="63" width="317" height="410">
<path d="M29.6172 74.2211L57.4784 472.044L345.448 465.236L335.952 63.5173L29.6172 74.2211Z" stroke="black"/>
</mask>
<g mask="url(#mask0_61385_181)">
<g style="mix-blend-mode:luminosity" opacity="0.4">
<path d="M-109.682 192.115L-249.298 226.371L-247.852 287.559L-106.773 315.18L32.8438 280.923L31.3974 219.736L-109.682 192.115Z" stroke="url(#paint2_linear_61385_181)" stroke-width="1.172"/>
<path d="M13.6541 286.09L154.733 313.711L156.18 374.898L16.5633 409.155L-124.516 381.534L-125.962 320.346L13.6541 286.09Z" stroke="url(#paint3_linear_61385_181)" stroke-width="1.172"/>
<path d="M155.295 312.639L14.2159 285.019L12.7694 223.831L152.386 189.575L293.465 217.195L294.912 278.383L155.295 312.639Z" stroke="url(#paint4_linear_61385_181)" stroke-width="1.172"/>
<path d="M13.6258 284.89L153.242 250.634L151.796 189.446L10.7166 161.825L-128.9 196.082L-127.454 257.269L13.6258 284.89Z" stroke="url(#paint5_linear_61385_181)" stroke-width="1.172"/>
</g>
</g>
<path d="M176.438 249.139L381.303 192.737L375.897 -35.9397L168.595 -82.6012L-36.2698 -26.1962L-30.864 202.48L176.438 249.139Z" fill="#D793D9" fill-opacity="0.51"/>
<path d="M176.438 249.139L381.303 192.737L375.897 -35.9397L168.595 -82.6012L-36.2698 -26.1962L-30.864 202.48L176.438 249.139Z" stroke="black"/>
<path d="M176.438 249.139L381.303 192.737L375.897 -35.9397L168.595 -82.6012L-36.2698 -26.1962L-30.864 202.48L176.438 249.139Z" stroke="black" stroke-opacity="0.2"/>
</g>
<defs>
<radialGradient id="paint0_radial_61385_181" cx="0" cy="0" r="1" gradientUnits="userSpaceOnUse" gradientTransform="translate(285 94) rotate(90) scale(300)">
<stop stop-color="#FB23FF"/>
<stop offset="1" stop-color="#121214" stop-opacity="0"/>
</radialGradient>
<radialGradient id="paint1_radial_61385_181" cx="0" cy="0" r="1" gradientUnits="userSpaceOnUse" gradientTransform="translate(62.0391 147.134) rotate(-90) scale(311.5 464.364)">
<stop stop-color="#AA3DFF"/>
<stop offset="0.552083" stop-color="#21162B" stop-opacity="0.0989583"/>
<stop offset="1" stop-color="#121214" stop-opacity="0"/>
</radialGradient>
<linearGradient id="paint2_linear_61385_181" x1="-109.629" y1="194.372" x2="-133.171" y2="312.273" gradientUnits="userSpaceOnUse">
<stop stop-color="#1F1439"/>
<stop offset="1" stop-color="#FF008E" stop-opacity="0"/>
</linearGradient>
<linearGradient id="paint3_linear_61385_181" x1="-125.008" y1="385.51" x2="-18.9069" y2="209.226" gradientUnits="userSpaceOnUse">
<stop stop-color="#FF008E" stop-opacity="0"/>
<stop offset="0.9999" stop-color="#FFA335" stop-opacity="0.796875"/>
<stop offset="1" stop-color="#FFCD1E"/>
</linearGradient>
<linearGradient id="paint4_linear_61385_181" x1="293.957" y1="213.219" x2="187.856" y2="389.503" gradientUnits="userSpaceOnUse">
<stop stop-color="#FF008E" stop-opacity="0"/>
<stop offset="0.9999" stop-color="#FFA335" stop-opacity="0.796875"/>
<stop offset="1" stop-color="#FFCD1E"/>
</linearGradient>
<linearGradient id="paint5_linear_61385_181" x1="13.5724" y1="282.633" x2="37.115" y2="164.732" gradientUnits="userSpaceOnUse">
<stop stop-color="#D3D9FC"/>
<stop offset="0.0001" stop-color="#D800B9"/>
<stop offset="0.453125" stop-color="#874975" stop-opacity="0.562556"/>
<stop offset="1" stop-color="#FF008E" stop-opacity="0"/>
</linearGradient>
<clipPath id="clip0_61385_181">
<rect width="375" height="812" fill="white"/>
</clipPath>
</defs>
</svg>
